# xmcd
#
# Track frame offsets:
#	150
#	27728
#	46348
#	61079
#	77640
#	94701
#	109320
#	133408
#	147996
#	166740
#	185378
#	202864
#	220453
#
# Disc length: 3243 seconds
#
# Revision: 0
# Processed by: cddbd v1.5.2PL0 Copyright (c) Steve Scherf et al.
# Submitted via: audiograbber 1.83.01
#
DISCID=ba0ca90d
DTITLE=Noel Coutts - Coming Home
DYEAR=1900
DGENRE=
TTITLE0=When the Night
TTITLE1=Tui in the Rain
TTITLE2=Going back to Nelson
TTITLE3=Why
TTITLE4=Wellington City
TTITLE5=Slapper Ho Dog
TTITLE6=Baby be Mine
TTITLE7=Cheating Heart
TTITLE8=Coming Home
TTITLE9=Sally
TTITLE10=Tattoo
TTITLE11=Taniwha
TTITLE12=Broken String
EXTD=
EXTT0=
EXTT1=
EXTT2=
EXTT3=
EXTT4=
EXTT5=
EXTT6=
EXTT7=
EXTT8=
EXTT9=
EXTT10=
EXTT11=
EXTT12=
PLAYORDER=
